<svg width="20" height="20" viewBox="0 0 20 20" fill="none" xmlns="http://www.w3.org/2000/svg">
<path d="M8.84535 16C9.08353 16.4125 9.52368 16.6666 10 16.6666C10.4763 16.6666 10.9165 16.4125 11.1547 16M4.17468 12.2173C3.99674 12.4124 3.95065 12.694 4.05715 12.9356C4.16365 13.1772 4.40267 13.3332 4.66668 13.3333H15.3333C15.5973 13.3334 15.8365 13.1778 15.9433 12.9364C16.0501 12.6949 16.0043 12.4133 15.8267 12.218C14.94 11.304 14 10.3327 14 7.33334C14 5.12568 12.2077 3.33334 10 3.33334C7.79235 3.33334 6.00001 5.12568 6.00001 7.33334C6.00001 10.3327 5.05935 11.304 4.17468 12.2173" stroke="white" stroke-opacity="0.95" stroke-width="1.33333" stroke-linecap="round" stroke-linejoin="round"/>
</svg>
