<svg width="20" height="20" viewBox="0 0 20 20" fill="none" xmlns="http://www.w3.org/2000/svg">
<path d="M10.0002 16.6667C6.32073 16.6667 3.3335 13.6794 3.3335 10C3.3335 6.32058 6.32073 3.33334 10.0002 3.33334C13.6821 3.33334 16.6668 6.01963 16.6668 9.33334C16.6668 11.1743 15.1744 12.6667 13.3335 12.6667H11.8335C11.3916 12.6667 10.9876 12.9163 10.79 13.3116C10.5924 13.7068 10.635 14.1798 10.9002 14.5333L11.1002 14.8C11.3653 15.1535 11.408 15.6265 11.2103 16.0218C11.0127 16.417 10.6087 16.6667 10.1668 16.6667H10.0002" stroke="#3D9B9B" stroke-width="1.33333" stroke-linecap="round" stroke-linejoin="round"/>
<path d="M10.6665 6.33333C10.6665 6.51731 10.8159 6.66667 10.9998 6.66667C11.1838 6.66667 11.3332 6.51731 11.3332 6.33333C11.3332 6.14936 11.1838 6 10.9998 6C10.8159 6 10.6665 6.14936 10.6665 6.33333Z" fill="#3D9B9B"/>
<path d="M10.6665 6.33333C10.6665 6.51731 10.8159 6.66667 10.9998 6.66667C11.1838 6.66667 11.3332 6.51731 11.3332 6.33333C11.3332 6.14936 11.1838 6 10.9998 6C10.8159 6 10.6665 6.14936 10.6665 6.33333V6.33333" stroke="#3D9B9B" stroke-width="1.33333" stroke-linecap="round" stroke-linejoin="round"/>
<path d="M13.3335 8.99999C13.3335 9.18396 13.4829 9.33332 13.6668 9.33332C13.8508 9.33332 14.0002 9.18396 14.0002 8.99999C14.0002 8.81602 13.8508 8.66666 13.6668 8.66666C13.4829 8.66666 13.3335 8.81602 13.3335 8.99999Z" fill="#3D9B9B"/>
<path d="M13.3335 8.99999C13.3335 9.18396 13.4829 9.33332 13.6668 9.33332C13.8508 9.33332 14.0002 9.18396 14.0002 8.99999C14.0002 8.81602 13.8508 8.66666 13.6668 8.66666C13.4829 8.66666 13.3335 8.81602 13.3335 8.99999V8.99999" stroke="#3D9B9B" stroke-width="1.33333" stroke-linecap="round" stroke-linejoin="round"/>
<path d="M6 10.3333C6 10.5173 6.14936 10.6667 6.33333 10.6667C6.51731 10.6667 6.66667 10.5173 6.66667 10.3333C6.66667 10.1494 6.51731 10 6.33333 10C6.14936 10 6 10.1494 6 10.3333Z" fill="#3D9B9B"/>
<path d="M6 10.3333C6 10.5173 6.14936 10.6667 6.33333 10.6667C6.51731 10.6667 6.66667 10.5173 6.66667 10.3333C6.66667 10.1494 6.51731 10 6.33333 10C6.14936 10 6 10.1494 6 10.3333V10.3333" stroke="#3D9B9B" stroke-width="1.33333" stroke-linecap="round" stroke-linejoin="round"/>
<path d="M7.3335 6.99999C7.3335 7.18396 7.48286 7.33332 7.66683 7.33332C7.8508 7.33332 8.00016 7.18396 8.00016 6.99999C8.00016 6.81602 7.8508 6.66666 7.66683 6.66666C7.48286 6.66666 7.3335 6.81602 7.3335 6.99999Z" fill="#3D9B9B"/>
<path d="M7.3335 6.99999C7.3335 7.18396 7.48286 7.33332 7.66683 7.33332C7.8508 7.33332 8.00016 7.18396 8.00016 6.99999C8.00016 6.81602 7.8508 6.66666 7.66683 6.66666C7.48286 6.66666 7.3335 6.81602 7.3335 6.99999V6.99999" stroke="#3D9B9B" stroke-width="1.33333" stroke-linecap="round" stroke-linejoin="round"/>
</svg>
